<?xml version="1.0" standalone="no"?>
<!DOCTYPE svg PUBLIC "-//W3C//DTD SVG 20010904//EN"
 "http://www.w3.org/TR/2001/REC-SVG-20010904/DTD/svg10.dtd">
<svg version="1.0" xmlns="http://www.w3.org/2000/svg"
 width="497.000000pt" height="497.000000pt" viewBox="0 0 497.000000 497.000000"
 preserveAspectRatio="xMidYMid meet">
<metadata>
Created by potrace 1.11, written by Peter Selinger 2001-2013
</metadata>
<g transform="translate(0.000000,497.000000) scale(0.100000,-0.100000)"
fill="#000000" stroke="none">
<path d="M2722 4616 c-18 -6 -54 -30 -81 -53 -41 -35 -51 -51 -60 -93 -6 -28
-11 -67 -11 -86 0 -31 2 -34 24 -28 36 9 60 -41 52 -106 -5 -43 -3 -49 19 -64
29 -19 32 -34 8 -52 -24 -18 -50 -17 -57 2 -4 11 -13 14 -29 10 -12 -4 -44 -9
-72 -12 -67 -8 -197 -49 -265 -85 -30 -15 -68 -31 -85 -35 -37 -8 -142 -60
-147 -72 -3 -9 -93 -45 -263 -106 -49 -18 -121 -52 -160 -76 -85 -52 -223
-120 -245 -120 -9 0 -20 -4 -25 -9 -6 -5 -48 -21 -94 -35 -79 -26 -84 -26
-109 -10 -24 16 -26 16 -38 -1 -8 -11 -10 -24 -5 -33 5 -9 5 -20 -1 -26 -5 -6
-15 -20 -22 -30 -13 -19 -14 -19 -72 2 -33 12 -79 26 -104 33 -48 12 -191 14
-249 4 -103 -18 -224 -74 -315 -147 -34 -27 -41 -30 -59 -18 -17 10 -22 10
-32 -4 -20 -27 -33 -19 -61 37 -24 48 -67 97 -84 97 -5 0 -11 -8 -15 -17 -6
-17 12 -39 50 -61 23 -13 65 -108 53 -120 -7 -7 -4 -14 11 -24 26 -16 26 -28
2 -59 -24 -30 -66 -170 -54 -178 14 -9 85 -64 108 -83 11 -9 153 -120 315
-248 320 -252 402 -316 469 -369 l43 -35 74 39 c40 22 78 50 85 62 12 23 49
32 49 13 0 -5 17 -9 38 -9 55 2 123 -20 154 -49 27 -25 58 -25 58 0 -1 22 -42
44 -117 62 l-73 18 17 29 c16 27 16 29 -2 43 -18 13 -18 15 7 72 48 108 62
172 62 284 -1 149 -37 267 -118 387 -14 20 -26 43 -26 49 0 17 50 56 65 50 8
-3 19 2 26 10 10 12 8 19 -10 38 -21 22 -21 23 -2 40 10 9 26 36 35 59 13 34
23 45 53 55 61 21 163 50 238 66 39 9 92 27 118 41 27 14 60 25 73 25 24 0 24
-1 10 -29 -18 -34 -64 -74 -110 -96 -24 -12 -37 -27 -46 -55 -7 -22 -33 -63
-58 -92 -24 -29 -48 -63 -53 -77 -12 -31 -14 -105 -4 -122 5 -7 10 -41 12 -76
4 -73 3 -73 -99 -49 -65 16 -83 6 -41 -21 15 -9 43 -32 61 -50 18 -18 39 -33
47 -33 7 0 23 -13 35 -29 12 -17 31 -31 47 -33 25 -3 30 -15 109 -253 l82
-250 -95 -170 c-52 -93 -99 -174 -104 -179 -5 -6 -43 7 -96 31 -114 53 -173
72 -280 88 -422 62 -833 -170 -1005 -567 -102 -236 -101 -507 1 -748 84 -197
258 -378 458 -479 64 -32 180 -69 257 -81 67 -11 221 -14 261 -7 11 3 42 8 68
11 248 36 518 232 653 473 29 53 41 62 61 42 5 -5 43 -18 84 -27 73 -17 74
-18 74 -49 0 -17 2 -33 5 -36 21 -18 155 -61 195 -62 28 -2 75 -8 105 -15 68
-16 107 -8 122 25 16 36 -1 63 -66 104 -62 38 -106 77 -106 92 0 5 12 22 26
37 44 46 77 129 78 198 0 49 -6 72 -33 123 -18 34 -31 66 -29 71 5 15 111 133
176 196 34 34 62 65 62 70 0 5 10 20 23 34 12 14 61 68 107 120 47 52 89 100
95 106 11 12 96 108 226 254 46 52 88 100 94 106 44 48 151 169 156 177 13 20
39 -2 39 -33 0 -18 5 -30 13 -30 15 0 91 -175 82 -190 -3 -5 -11 -10 -16 -10
-14 0 -140 -82 -180 -117 -212 -186 -323 -415 -336 -688 -11 -257 78 -497 257
-688 362 -387 973 -399 1349 -26 232 230 330 548 266 862 -76 376 -382 678
-755 746 -147 27 -319 16 -456 -28 -33 -10 -62 -16 -65 -12 -16 15 -70 161
-64 171 4 6 3 16 -3 23 -17 22 -103 288 -96 298 3 6 -3 13 -14 16 -19 4 -39
49 -28 60 5 5 115 30 176 39 19 3 43 13 53 22 18 16 18 24 2 92 -5 21 -1 27
27 40 38 17 45 43 28 95 -10 32 -17 36 -89 58 -120 37 -216 109 -357 269 -16
19 -55 53 -86 77 -31 23 -67 58 -81 79 -14 20 -42 54 -61 76 -20 21 -36 44
-36 51 0 10 -70 107 -90 125 -3 3 -29 38 -57 79 l-52 73 42 34 c72 58 80 60
131 30 52 -30 72 -26 82 17 13 62 57 127 86 127 23 0 23 8 -2 70 l-20 50 35
23 c25 15 38 34 46 61 9 35 7 48 -17 110 -43 110 -118 171 -249 201 -65 16
-170 16 -213 1z m-50 -1054 c5 -12 109 -83 141 -97 32 -13 145 -100 242 -185
34 -30 111 -82 169 -115 107 -60 212 -136 227 -165 4 -8 16 -32 25 -53 10 -23
33 -49 56 -64 22 -13 38 -26 36 -28 -1 -2 -37 -10 -78 -19 -62 -12 -78 -13
-95 -2 -27 17 -81 3 -88 -24 -3 -12 1 -23 10 -28 22 -13 64 -137 51 -150 -8
-8 -6 -16 6 -28 36 -36 17 -39 -233 -40 -133 0 -245 4 -248 9 -3 4 4 18 15 30
58 62 40 122 -58 187 -19 13 -37 27 -40 30 -3 3 -17 13 -32 23 -16 10 -28 24
-28 32 0 13 -128 105 -146 105 -3 0 -22 13 -42 29 -20 16 -57 41 -82 55 -42
25 -71 39 -228 112 -34 16 -62 34 -62 41 0 15 48 53 66 53 8 0 36 22 64 50 29
29 81 65 129 89 55 28 97 59 137 101 54 56 78 71 86 52z m-1637 -306 c29 -19
52 -62 49 -93 -1 -13 -2 -31 -3 -41 -3 -49 -81 -94 -138 -82 -82 19 -119 101
-79 178 29 56 114 75 171 38z m-503 -384 c6 -22 -18 -46 -38 -38 -19 7 -18 33
4 45 24 14 29 13 34 -7z m84 -37 c7 -18 -35 -74 -57 -74 -26 -1 -30 11 -12 38
35 53 58 66 69 36z m74 -57 c0 -19 -50 -78 -66 -78 -24 0 -16 36 16 70 28 29
50 33 50 8z m30 -64 c0 -8 -5 -12 -10 -9 -6 4 -8 11 -5 16 9 14 15 11 15 -7z
m1770 -230 c0 -8 -4 -23 -10 -33 -5 -10 -12 -38 -15 -62 -10 -74 -8 -68 -53
-177 -27 -66 -40 -69 -49 -11 -2 19 -8 53 -12 75 -5 23 -4 48 0 56 5 9 0 43
-11 84 -11 38 -20 72 -20 76 0 5 38 8 85 8 70 0 85 -3 85 -16z m935 -4 c7 -23
0 -35 -84 -129 -35 -39 -71 -80 -82 -92 -10 -11 -49 -55 -86 -97 -37 -41 -76
-84 -86 -96 -19 -22 -25 -28 -147 -166 -41 -47 -88 -100 -105 -119 -16 -18
-55 -60 -85 -93 l-55 -59 -55 11 c-30 5 -65 12 -76 14 -43 8 -130 56 -159 86
l-30 31 24 42 c13 23 34 58 46 77 12 19 22 39 23 43 0 5 12 23 26 42 14 18 26
36 26 40 0 3 8 18 19 33 10 15 58 92 106 172 49 80 111 175 139 213 l51 67
292 0 c282 0 292 -1 298 -20z m-1398 -445 c40 -142 56 -251 57 -398 1 -105 2
-110 28 -130 21 -18 28 -34 33 -79 l7 -58 -30 0 c-29 0 -31 3 -42 58 -22 113
-101 312 -123 312 -6 0 -8 3 -4 6 14 14 -115 168 -202 239 -33 28 -61 53 -61
57 0 11 173 313 184 320 19 13 116 -196 153 -327z m94 109 c19 -31 20 -40 10
-74 -14 -46 -37 -59 -45 -24 -4 13 -6 25 -5 26 0 2 -4 14 -9 28 -5 14 -12 37
-16 53 -6 24 -4 27 18 27 17 0 31 -11 47 -36z m-1000 -84 c5 -28 2 -635 -3
-643 -4 -7 -8 -8 -9 -2 -1 15 -5 33 -23 105 -17 72 -45 192 -53 230 -3 14 -6
30 -7 35 -1 6 -9 37 -16 70 -8 33 -14 62 -15 65 -16 64 -25 123 -20 128 13 13
144 24 146 12z m150 -12 c4 -7 6 -15 4 -18 -2 -4 -7 -20 -9 -36 -3 -16 -8 -40
-11 -54 -3 -14 -8 -36 -10 -50 -2 -14 -7 -36 -10 -50 -3 -14 -8 -38 -11 -55
-3 -16 -9 -49 -15 -73 -5 -23 -12 -59 -15 -80 -3 -20 -7 -45 -10 -55 -3 -10
-7 -30 -10 -45 -2 -15 -6 -36 -8 -47 -3 -11 -5 -24 -5 -28 -1 -5 -5 -6 -9 -3
-6 3 -9 604 -3 613 4 8 116 -10 122 -19z m2680 15 c1 -5 2 -142 3 -306 2 -320
-5 -377 -28 -257 -3 14 -7 36 -11 50 -3 14 -7 34 -9 45 -2 11 -12 49 -21 85
-18 70 -23 91 -31 130 -3 14 -14 63 -25 110 -33 139 -34 128 8 135 21 4 42 8
47 9 26 6 66 5 67 -1z m137 -2 c17 -1 22 -5 18 -18 -3 -10 -8 -36 -11 -58 -3
-23 -8 -52 -11 -65 -3 -14 -6 -34 -8 -45 -2 -11 -13 -72 -25 -135 -12 -63 -31
-162 -42 -219 -18 -95 -27 -130 -30 -105 -3 33 -5 641 -1 647 2 4 22 6 45 3
23 -3 52 -5 65 -5z m-2706 -27 l46 -15 -33 -82 c-17 -45 -36 -91 -40 -102 -5
-11 -9 -22 -10 -25 -1 -3 -8 -21 -16 -40 -9 -19 -42 -102 -74 -183 -36 -94
-61 -145 -67 -139 -6 6 -5 24 1 50 7 22 11 44 10 49 -1 4 0 10 1 13 3 8 9 43
14 75 2 17 7 37 10 45 3 8 7 31 10 50 3 19 8 46 11 60 3 14 9 48 15 75 5 28
12 61 15 75 3 14 8 41 11 60 4 19 9 38 11 43 7 11 35 8 85 -9z m2827 0 c32 -9
51 -20 48 -27 -3 -7 -17 -43 -32 -82 -15 -38 -31 -79 -36 -90 -15 -36 -141
-359 -144 -370 -5 -25 -18 -44 -25 -40 -5 3 -7 14 -4 25 2 11 6 30 9 43 5 20
7 32 19 92 2 11 6 41 10 66 4 25 9 59 13 75 3 16 7 38 8 49 2 11 4 20 5 20 2
0 7 23 14 70 4 23 9 52 11 65 3 14 8 39 11 55 6 29 12 57 13 63 2 6 31 1 80
-14z m-3258 -1 c1 -11 5 -28 23 -104 20 -88 27 -118 32 -152 2 -16 6 -32 9
-37 5 -8 19 -68 31 -135 3 -16 12 -55 19 -85 23 -87 2 -78 -40 17 -21 48 -51
116 -67 150 -15 34 -28 64 -28 67 0 2 -15 37 -34 78 -46 98 -66 148 -66 163 0
19 119 56 121 38z m2839 -35 c6 -24 16 -61 22 -83 5 -22 12 -49 14 -60 6 -33
54 -249 60 -267 8 -26 -11 -22 -24 5 -27 55 -172 405 -172 415 0 10 46 29 77
31 7 1 17 -18 23 -41z m-2266 -22 c22 -11 40 -24 40 -27 2 -13 -338 -537 -346
-533 -8 5 -10 1 130 352 107 269 94 254 176 208z m2836 -1 c17 -9 30 -21 30
-28 -1 -6 -24 -49 -53 -94 -288 -456 -263 -418 -270 -400 -3 8 0 25 7 38 6 13
19 44 28 69 10 25 23 59 29 75 7 17 13 32 14 35 5 15 19 49 31 77 8 17 14 33
14 36 0 3 5 18 12 34 6 15 12 30 13 33 1 3 7 18 13 33 7 16 12 30 12 32 0 2 9
24 20 49 21 50 24 50 100 11z m-3540 -17 c8 -18 33 -78 58 -133 24 -55 50
-113 57 -130 7 -16 25 -57 40 -90 43 -95 57 -133 53 -145 -3 -11 -41 40 -131
175 -22 33 -49 74 -61 90 -93 135 -136 200 -136 205 0 7 90 59 101 60 4 0 12
-15 19 -32z m2906 -196 c51 -119 90 -221 87 -225 -3 -5 -15 5 -26 21 -12 16
-30 40 -40 53 -9 13 -53 74 -97 134 -45 61 -87 118 -95 127 -34 41 -37 57 -13
71 43 27 63 36 78 36 10 0 45 -71 106 -217z m778 113 l39 -33 -81 -79 c-309
-303 -372 -362 -376 -355 -3 5 40 78 95 163 54 85 103 161 107 169 7 14 59 97
105 167 21 30 22 31 47 16 14 -8 43 -30 64 -48z m-3754 -57 c35 -51 94 -140
133 -198 39 -58 87 -128 109 -157 21 -29 38 -60 38 -70 0 -11 -89 72 -227 211
l-227 228 43 39 c23 22 49 39 56 39 7 0 41 -42 75 -92z m921 61 l40 -31 -43
-41 c-24 -22 -81 -76 -127 -120 -47 -44 -87 -75 -89 -69 -2 6 14 42 36 79 21
37 58 101 81 141 23 39 47 72 53 72 5 0 28 -14 49 -31z m1885 -36 c65 -88 150
-209 221 -313 32 -47 60 -87 63 -90 3 -3 13 -17 23 -32 43 -69 -22 -13 -231
195 -150 150 -221 228 -217 237 6 15 73 70 85 70 4 0 29 -30 56 -67z m-1799
-49 c13 -14 31 -36 39 -49 14 -22 14 -24 -15 -41 -17 -10 -31 -22 -31 -26 0
-4 -4 -8 -8 -8 -5 0 -95 -58 -202 -130 -106 -71 -197 -127 -201 -125 -19 12
36 81 175 216 83 81 160 157 170 168 26 28 44 26 73 -5z m2839 -11 c15 -21 32
-41 37 -44 16 -11 -2 -28 -101 -94 -54 -35 -171 -113 -261 -174 -90 -61 -171
-111 -180 -111 -17 0 447 459 465 460 7 0 24 -17 40 -37z m-3808 -188 c118
-119 212 -220 210 -226 -2 -5 -54 23 -116 63 -62 40 -120 78 -130 83 -81 47
-282 178 -282 185 0 15 80 110 93 110 7 0 108 -97 225 -215z m2843 -14 c127
-126 227 -231 222 -234 -5 -3 -27 6 -50 21 -22 15 -62 41 -89 57 -261 161
-414 261 -414 272 0 15 78 113 90 113 6 0 114 -103 241 -229z m1052 77 c15
-29 27 -56 27 -59 0 -4 -22 -16 -49 -27 -26 -12 -78 -35 -114 -52 -36 -16 -68
-30 -70 -30 -3 0 -41 -16 -84 -36 -152 -71 -233 -103 -238 -95 -2 5 105 82
240 171 134 90 242 167 239 171 -3 5 1 9 8 9 8 0 26 -24 41 -52z m-2828 -3
c15 -25 25 -50 23 -55 -4 -13 -483 -227 -521 -234 -14 -2 -28 -2 -31 1 -3 3
81 63 187 134 219 147 210 141 257 174 19 13 40 24 47 25 7 0 24 -20 38 -45z
m-1145 -136 c132 -83 237 -155 235 -160 -6 -8 -20 -5 -60 11 -11 4 -36 13 -55
20 -19 7 -48 18 -65 25 -16 7 -105 41 -197 75 -93 34 -168 67 -168 72 0 24 44
108 57 108 8 0 122 -68 253 -151z m2833 -9 c270 -171 302 -203 122 -125 -16 7
-79 32 -140 55 -60 23 -129 51 -152 61 -24 11 -49 19 -57 19 -8 0 -17 4 -21 9
-3 5 -19 12 -35 16 -34 7 -37 22 -14 68 21 41 35 58 44 55 4 -2 118 -73 253
-158z m-1629 13 c25 -73 24 -74 -50 -88 -10 -2 -21 -4 -24 -5 -3 -1 -9 -2 -13
-1 -4 1 -16 -3 -27 -9 -10 -5 -34 -12 -53 -14 -19 -3 -62 -12 -96 -21 -56 -14
-197 -23 -207 -12 -3 2 48 27 113 55 157 68 283 125 308 139 26 15 30 11 49
-44z m2830 0 c19 -56 20 -83 4 -84 -7 0 -20 -2 -28 -4 -8 -2 -28 -7 -45 -10
-16 -4 -37 -8 -45 -10 -8 -2 -15 -4 -15 -5 0 -1 -11 -4 -25 -5 -28 -4 -65 -13
-65 -15 0 -1 -9 -3 -20 -5 -22 -3 -47 -8 -115 -24 -25 -5 -58 -12 -75 -15 -16
-4 -57 -12 -90 -20 -101 -24 -82 -2 42 52 157 68 303 132 383 169 36 17 68 28
72 27 3 -2 13 -25 22 -51z m-1500 10 c4 -5 11 -8 14 -9 4 0 21 -6 37 -13 60
-26 336 -135 345 -136 3 -1 21 -8 41 -17 20 -9 46 -19 58 -23 11 -3 19 -11 16
-16 -7 -10 -40 -6 -175 21 -92 18 -114 22 -140 25 -23 3 -185 33 -220 40 -8 2
-20 4 -27 4 -8 1 -8 14 1 54 17 73 30 90 50 70z m-2663 -69 c96 -37 201 -77
234 -89 133 -51 158 -62 146 -69 -6 -4 -19 -5 -30 -1 -16 5 -148 30 -206 39
-11 2 -49 9 -85 16 -36 7 -74 14 -85 15 -11 2 -31 5 -45 8 -24 5 -85 16 -124
23 -11 2 -23 7 -27 11 -10 12 22 113 36 113 7 0 91 -30 186 -66z m1830 31 c19
-4 58 -8 87 -9 29 -2 55 -5 57 -8 3 -2 -24 -35 -59 -73 l-64 -69 -43 14 c-57
18 -68 27 -62 49 3 13 11 17 24 14 24 -7 48 13 44 35 -2 9 -4 20 -4 24 -1 4
-10 10 -21 13 -11 4 -18 11 -14 16 3 5 9 7 13 5 4 -3 23 -8 42 -11z m-466 -85
c3 -11 4 -24 1 -28 -3 -5 -51 -9 -107 -10 -119 -1 -120 9 -4 37 103 25 103 25
110 1z m2830 -11 c12 -67 13 -119 3 -125 -14 -9 -668 -12 -673 -4 -3 6 139 43
205 54 14 3 25 5 25 6 0 2 21 6 66 14 20 3 42 8 50 10 8 3 25 8 39 10 14 3 35
7 48 10 37 10 54 13 137 31 44 9 81 18 84 21 7 6 11 -1 16 -27z m-1548 -18 c4
1 10 0 13 -1 3 -1 16 -3 30 -5 14 -2 54 -9 90 -15 67 -13 85 -16 135 -24 17
-3 66 -12 110 -20 44 -8 96 -18 115 -22 19 -4 51 -10 70 -13 19 -4 34 -13 32
-19 -1 -7 8 -12 20 -12 12 0 19 -2 16 -5 -4 -5 -188 -48 -253 -59 -16 -3 -40
-8 -52 -11 -100 -22 -114 -25 -152 -31 -19 -2 -55 -9 -80 -15 -45 -10 -65 -15
-115 -23 -22 -4 -25 0 -31 40 -7 47 -5 221 2 241 4 9 10 10 24 3 10 -6 22 -10
26 -9z m-2806 -1 c30 -6 65 -12 79 -15 14 -2 41 -7 60 -10 19 -4 46 -8 60 -10
14 -3 36 -7 50 -10 14 -3 39 -8 55 -10 17 -3 41 -7 55 -10 60 -12 77 -15 105
-20 17 -3 37 -8 45 -10 8 -2 25 -4 36 -4 13 -1 24 -9 27 -20 4 -16 -2 -21 -24
-26 -16 -4 -31 -6 -34 -6 -2 0 -19 -5 -37 -10 -18 -5 -46 -12 -63 -15 -16 -2
-39 -8 -50 -11 -11 -4 -27 -8 -35 -9 -8 -1 -26 -5 -40 -8 -14 -3 -36 -7 -50
-10 -42 -8 -71 -15 -88 -20 -9 -3 -28 -7 -42 -10 -42 -8 -73 -15 -123 -27 -26
-6 -51 -8 -54 -5 -9 9 -15 215 -8 254 7 36 4 36 76 22z m1532 -64 c5 -36 4
-53 -2 -114 0 -7 -4 -11 -8 -9 -5 3 -44 8 -88 11 -44 3 -91 8 -105 10 -14 3
-59 8 -100 12 -99 9 -123 11 -135 13 -5 1 -3 6 5 12 12 8 8 10 -15 8 -93 -4
-248 2 -240 10 10 9 156 46 225 57 19 3 42 9 50 13 8 4 35 9 60 10 25 2 46 4
47 4 1 1 69 2 151 3 l150 0 5 -40z m417 -43 c0 -18 -28 -53 -42 -53 -9 0 -11
73 -2 83 11 10 44 -12 44 -30z m2411 -37 c4 -30 -3 -112 -9 -118 -4 -4 -84 9
-177 28 -94 20 -179 37 -190 38 -11 2 -36 7 -55 10 -19 4 -44 9 -55 11 -11 2
-20 4 -20 5 0 1 -16 4 -35 6 -50 7 -67 14 -53 22 20 12 593 11 594 -2z m-431
-61 c96 -19 189 -37 205 -41 17 -3 39 -7 50 -9 11 -2 20 -4 20 -5 0 -2 9 -4
20 -6 11 -1 34 -6 50 -9 17 -4 37 -8 45 -10 8 -2 18 -4 22 -4 8 -1 5 -16 -12
-79 -11 -42 -12 -43 -43 -37 -18 4 -36 11 -42 15 -5 5 -13 9 -17 9 -4 1 -28
10 -54 21 -25 11 -51 20 -58 20 -7 0 -16 3 -20 8 -4 4 -11 7 -14 8 -7 1 -53
18 -87 33 -11 5 -79 33 -152 61 -73 29 -130 56 -128 61 3 4 13 5 23 3 9 -2 96
-19 192 -39z m-3451 -4 c-106 -50 -261 -119 -271 -121 -9 -1 -177 -77 -199
-89 -9 -5 -21 -6 -27 -2 -12 7 -42 84 -42 106 0 7 34 19 83 30 45 10 83 17 84
17 2 -1 21 5 43 13 22 8 41 14 43 13 2 -1 55 8 97 18 14 3 36 7 50 10 14 3 57
13 95 22 93 24 114 15 44 -17z m2909 24 c-2 -1 -106 -46 -233 -100 -126 -53
-247 -105 -267 -116 -21 -10 -38 -16 -38 -13 0 2 -9 0 -20 -6 -18 -10 -22 -7
-36 25 -8 20 -17 49 -20 65 -6 30 -7 29 74 45 13 2 31 6 40 9 9 3 31 8 47 11
17 3 44 8 60 10 27 5 145 31 252 55 22 6 58 13 80 16 21 3 40 8 42 10 2 2 8 1
13 -2 5 -3 8 -7 6 -9z m-2819 -29 c-8 -7 -93 -67 -189 -132 -96 -65 -176 -121
-178 -126 -2 -4 -8 -8 -14 -8 -5 0 -38 -21 -73 -46 l-64 -45 -30 48 c-17 26
-31 55 -31 63 0 10 58 41 178 92 97 42 229 99 292 127 110 48 140 56 109 27z
m501 10 c74 -6 123 -13 195 -27 28 -5 61 -11 75 -14 14 -3 48 -9 75 -15 28 -6
61 -12 74 -15 34 -6 35 -9 22 -62 -19 -76 -21 -78 -77 -59 -118 39 -473 191
-462 197 6 4 16 6 22 4 6 -2 40 -6 76 -9z m998 -16 c27 -26 29 -79 4 -110 -16
-20 -24 -21 -62 -15 -57 10 -106 55 -91 83 9 17 44 38 91 55 26 10 36 7 58
-13z m1812 -45 c80 -31 164 -66 187 -76 24 -10 46 -19 51 -19 9 0 162 -62 179
-73 9 -6 5 -20 -14 -55 -43 -78 -32 -80 -181 20 -40 26 -74 48 -77 48 -3 0
-40 24 -82 53 -43 28 -113 74 -156 100 -42 27 -75 53 -71 58 3 5 8 8 12 5 4
-2 72 -29 152 -61z m-539 20 c0 -5 -194 -137 -263 -180 -9 -5 -57 -36 -107
-68 -49 -33 -93 -59 -98 -59 -9 0 -52 80 -53 97 0 6 21 19 48 29 26 11 65 27
87 37 22 9 96 40 165 69 69 29 139 58 155 65 53 23 67 26 66 10z m-2848 -91
c-43 -42 -140 -137 -216 -212 l-138 -136 -34 40 c-19 21 -35 46 -35 54 0 8 64
58 143 110 78 52 147 98 152 103 51 41 201 134 203 126 2 -5 -32 -43 -75 -85z
m2958 78 c-5 -10 -34 -55 -63 -100 -29 -45 -73 -114 -98 -153 -25 -39 -76
-120 -115 -179 l-70 -108 -30 22 c-47 33 -85 69 -85 80 0 14 443 455 458 456
9 0 10 -5 3 -18z m424 -86 c72 -47 181 -117 242 -157 l113 -71 -18 -30 c-9
-16 -31 -44 -49 -63 l-32 -34 -100 102 c-238 243 -330 341 -325 349 6 10 8 9
169 -96z m-3236 41 c-6 -18 -22 -54 -34 -82 -12 -27 -26 -61 -30 -75 -4 -14
-13 -38 -20 -55 -42 -95 -107 -252 -110 -265 -2 -8 -12 -32 -22 -52 l-18 -37
-40 19 c-22 10 -46 23 -53 28 -10 7 23 69 146 268 87 142 165 270 172 284 18
34 26 8 9 -33z m125 -66 c3 -23 7 -45 10 -49 2 -4 7 -25 10 -47 4 -22 11 -57
17 -79 12 -45 57 -248 65 -291 3 -16 9 -42 14 -57 8 -25 6 -27 -28 -32 -39 -6
-87 -9 -112 -7 -14 1 -15 41 -14 329 1 180 3 334 4 342 3 20 26 -56 34 -109z
m2524 5 c-57 -57 -151 -151 -211 -210 l-107 -108 -40 43 c-22 24 -40 48 -40
55 0 6 71 58 157 115 86 57 161 109 167 114 6 6 23 16 39 24 15 8 27 18 27 23
0 4 5 8 11 8 5 0 26 11 46 25 73 49 52 10 -49 -89z m-1568 88 c0 -2 -9 -8 -20
-14 -17 -9 -20 -8 -20 9 0 14 5 18 20 14 11 -3 20 -7 20 -9z m2173 -204 c119
-121 217 -225 217 -231 0 -12 -39 -46 -73 -65 -18 -10 -26 -4 -74 63 -29 41
-53 76 -53 78 0 4 -98 147 -117 170 -7 9 -50 74 -117 178 -41 62 11 16 217
-193z m-3319 152 c-32 -55 -285 -465 -289 -471 -9 -9 -125 86 -125 102 0 15
423 426 433 420 4 -2 -4 -26 -19 -51z m332 -87 c54 -80 136 -200 182 -267 l82
-122 -28 -17 c-15 -10 -43 -25 -62 -33 l-35 -14 -123 286 c-109 256 -130 312
-119 312 2 0 48 -65 103 -145z m374 -292 c0 -11 -80 -83 -92 -83 -3 0 -27 33
-54 73 -26 39 -50 74 -53 77 -3 3 -37 52 -76 110 -38 58 -76 111 -82 118 -7 7
-13 17 -13 22 0 5 -6 15 -13 22 -24 25 -57 85 -50 92 8 8 433 -414 433 -431z
m-99 279 c120 -75 218 -141 218 -146 1 -4 -20 -35 -46 -67 l-47 -58 -203 205
c-112 112 -203 207 -203 210 0 23 92 -24 281 -144z m2409 91 c22 -103 31 -147
36 -183 3 -19 8 -39 12 -44 3 -5 6 -19 7 -30 6 -45 15 -99 20 -106 3 -4 7 -27
10 -50 3 -24 8 -47 11 -52 3 -4 7 -27 9 -49 3 -23 9 -47 15 -54 8 -10 1 -15
-32 -21 -64 -11 -117 -11 -121 1 -3 8 -1 391 2 598 1 64 16 59 31 -10z m-144
-15 c-13 -35 -29 -76 -36 -93 -6 -16 -11 -32 -12 -35 0 -3 -6 -16 -14 -30 -7
-14 -32 -72 -54 -130 -23 -58 -48 -120 -56 -138 -8 -18 -21 -46 -28 -62 l-12
-30 -52 26 c-29 14 -52 31 -52 37 0 7 39 74 88 149 48 75 120 189 161 253 40
63 77 115 82 115 5 0 -2 -28 -15 -62z m59 29 c-3 -12 -7 -33 -10 -47 -7 -33
-10 -46 -35 -170 -12 -58 -23 -114 -26 -125 -2 -11 -7 -36 -10 -55 -3 -19 -7
-43 -10 -52 -5 -18 -9 -34 -19 -95 -8 -49 -14 -51 -92 -28 l-50 15 57 142 c32
79 81 199 110 268 28 69 53 130 54 135 12 45 39 56 31 12z m150 -57 c3 -7 11
-27 105 -250 115 -272 110 -245 54 -264 -81 -27 -92 -23 -100 42 -3 20 -7 44
-9 52 -2 8 -7 31 -10 50 -3 19 -8 43 -11 52 -5 16 -9 35 -19 88 -5 25 -11 52
-20 93 -3 12 -8 36 -11 52 -10 61 -24 127 -29 143 -3 8 -2 19 2 25 5 8 33 -40
48 -83z m-2950 -251 c0 -226 -3 -292 -13 -298 -12 -7 -72 -1 -97 10 -14 6 -10
72 9 161 3 12 7 37 10 53 2 17 7 37 10 45 3 8 7 29 9 45 3 17 13 71 22 120 16
85 21 110 30 145 2 8 4 22 5 30 1 11 3 11 8 -3 4 -9 7 -148 7 -308z m131 206
c15 -33 28 -62 29 -65 2 -6 23 -57 40 -95 8 -16 32 -75 56 -130 23 -55 48
-114 55 -132 l14 -32 -63 -20 c-34 -10 -63 -18 -65 -16 -2 1 -5 14 -7 29 -5
29 -10 49 -25 116 -11 48 -18 82 -25 118 -5 20 -11 51 -20 92 -2 8 -4 15 -6
15 -1 0 -3 9 -5 20 -4 28 -14 77 -19 95 -2 8 -7 30 -10 49 -3 19 -8 38 -11 43
-3 4 -2 13 2 20 5 8 12 1 21 -18 7 -16 25 -56 39 -89z m2930 -30 c48 -71 91
-131 96 -133 4 -2 8 -10 8 -18 0 -8 5 -14 10 -14 6 0 10 -4 10 -9 0 -9 57
-100 70 -111 3 -3 14 -18 24 -34 20 -32 22 -31 -55 -71 l-47 -24 -40 92 c-47
108 -71 165 -71 172 -1 3 -11 26 -25 53 -13 26 -27 58 -31 72 -7 24 -39 99
-54 130 -9 18 -2 45 9 33 4 -4 47 -66 96 -138z m-3100 117 c-2 -4 -7 -28 -11
-52 -4 -25 -13 -76 -21 -115 -9 -38 -17 -82 -19 -97 -2 -14 -11 -62 -20 -105
-9 -43 -18 -89 -20 -103 -6 -34 -13 -68 -20 -90 -5 -17 -9 -17 -58 -3 -29 9
-56 19 -61 23 -5 5 10 54 34 112 23 57 60 148 82 203 22 55 46 114 53 130 7
17 21 49 30 72 10 24 21 40 26 37 5 -3 7 -9 5 -12z m543 -18 c53 -14 133 -37
179 -52 80 -25 83 -27 77 -51 -8 -33 -44 -91 -55 -91 -5 0 -28 13 -52 29 -24
15 -74 48 -113 73 -38 24 -94 59 -122 78 -29 18 -53 35 -53 37 0 9 52 0 139
-23z m2327 -289 c-1 -156 -4 -286 -6 -288 -3 -1 -31 -1 -63 1 l-59 4 5 41 c3
23 8 54 11 69 4 16 8 40 10 55 3 16 8 42 11 58 4 17 8 39 10 50 2 11 14 65 26
120 33 153 37 175 32 175 -2 0 -1 5 3 11 17 28 21 -31 20 -296z"/>
<path d="M930 3231 c-5 -11 -7 -27 -4 -35 8 -21 60 -21 68 0 8 21 8 20 -10 38
-21 21 -41 20 -54 -3z"/>
<path d="M954 3126 c-24 -18 -12 -67 16 -63 29 5 43 22 36 45 -9 26 -30 34
-52 18z"/>
</g>
</svg>
